<?xml version="1.0" standalone="no"?>
<!DOCTYPE svg PUBLIC "-//W3C//DTD SVG 20010904//EN"
 "http://www.w3.org/TR/2001/REC-SVG-20010904/DTD/svg10.dtd">
<svg version="1.0" xmlns="http://www.w3.org/2000/svg"
 width="400.000000pt" height="400.000000pt" viewBox="0 0 400.000000 400.000000"
 preserveAspectRatio="xMidYMid meet">
<metadata>
Created by potrace 1.11, written by Peter Selinger 2001-2013
</metadata>
<g transform="translate(0.000000,400.000000) scale(0.100000,-0.100000)"
fill="#000000" stroke="none">
<path d="M793 2998 c2 -178 7 -333 10 -346 48 -182 205 -287 417 -281 135 4
249 57 317 147 65 85 71 129 72 485 l1 317 -80 0 -80 0 0 -297 c0 -299 -4
-343 -32 -398 -67 -127 -292 -150 -400 -40 -24 24 -70 122 -67 143 1 4 1 139
0 300 l-1 292 -80 0 -80 0 3 -322z"/>
<path d="M2560 3248 l0 -73 147 0 148 0 0 -398 0 -397 80 0 80 0 0 399 0 399
147 -2 c134 -1 148 1 149 17 1 9 2 41 2 70 l1 52 -377 3 -377 2 0 -72z"/>
<path d="M789 1458 c-1 -2 -2 -213 -2 -471 l-2 -467 80 0 80 0 0 140 0 140
137 0 c200 0 295 26 364 102 64 69 85 127 85 236 1 167 -95 281 -262 312 -44
8 -477 15 -480 8z m492 -165 c60 -27 91 -72 97 -138 8 -96 -35 -169 -114 -196
-25 -8 -90 -13 -179 -14 l-140 0 -1 180 c0 99 1 183 3 187 2 4 67 5 146 4 118
-2 150 -6 188 -23z"/>
<path d="M2817 1444 c-80 -19 -157 -59 -219 -114 -239 -214 -184 -618 103
-763 182 -91 385 -70 552 58 l47 36 -47 53 -46 53 -48 -34 c-167 -120 -384
-88 -497 73 -60 86 -69 233 -20 329 100 195 347 241 524 98 l41 -33 24 32 c13
17 34 44 47 59 l22 27 -49 36 c-127 94 -279 125 -434 90z"/>
</g>
</svg>
